<svg width="38" height="38" viewBox="0 0 38 38" fill="none" xmlns="http://www.w3.org/2000/svg">
<path d="M16.8784 7.91667H22.1667C23.0066 7.91667 23.812 8.2503 24.4059 8.84416C24.9997 9.43803 25.3334 10.2435 25.3334 11.0833V16.3717L26.9167 17.955L36.4167 11.0833V26.9167M25.3334 25.3333V26.9167C25.3334 27.7565 24.9997 28.562 24.4059 29.1558C23.812 29.7497 23.0066 30.0833 22.1667 30.0833H4.75004C3.91019 30.0833 3.10473 29.7497 2.51087 29.1558C1.917 28.562 1.58337 27.7565 1.58337 26.9167V11.0833C1.58337 10.2435 1.917 9.43803 2.51087 8.84416C3.10473 8.2503 3.91019 7.91667 4.75004 7.91667H7.91671L25.3334 25.3333Z" stroke="black" stroke-width="2" stroke-linecap="round" stroke-linejoin="round"/>
<path d="M1.58337 1.58333L36.4167 36.4167" stroke="black" stroke-width="2" stroke-linecap="round" stroke-linejoin="round"/>
</svg>
